<?xml version="1.0" standalone="no"?>
<!DOCTYPE svg PUBLIC "-//W3C//DTD SVG 20010904//EN"
 "http://www.w3.org/TR/2001/REC-SVG-20010904/DTD/svg10.dtd">
<svg version="1.0" xmlns="http://www.w3.org/2000/svg"
 width="916.000000pt" height="916.000000pt" viewBox="0 0 916.000000 916.000000"
 preserveAspectRatio="xMidYMid meet">
<metadata>
Created by potrace 1.14, written by Peter Selinger 2001-2017
</metadata>
<g transform="translate(0.000000,916.000000) scale(0.100000,-0.100000)"
fill="#000000" stroke="none">
<path d="M4338 8715 c-2 -1 -43 -5 -93 -9 -49 -3 -108 -8 -130 -11 -159 -21
-217 -30 -345 -56 -881 -182 -1679 -658 -2261 -1351 -368 -436 -652 -982 -799
-1533 -32 -118 -85 -371 -94 -445 -3 -25 -11 -85 -18 -135 -9 -60 -13 -205
-13 -440 1 -380 13 -514 70 -800 195 -964 733 -1820 1515 -2411 133 -100 396
-274 416 -274 3 0 18 -8 32 -19 39 -28 293 -153 397 -196 401 -167 804 -267
1210 -302 117 -10 583 -10 705 0 233 19 511 71 745 138 1601 461 2752 1859
2892 3514 10 114 10 476 0 620 -55 830 -381 1634 -930 2295 -92 110 -378 396
-487 486 -450 371 -928 625 -1475 783 -191 54 -480 112 -640 127 -33 3 -103 9
-155 14 -85 8 -534 12 -542 5z"/>
</g>
</svg>
